<svg width="140" height="200" viewBox="0 0 140 200" xmlns="http://www.w3.org/2000/svg">
  <path d="M15 0C9 0 4 5 4 12v176c0 7 5 12 12 12h108c7 0 12-5 12-12 0-7-5-12-12-12H40V12C40 5 35 0 28 0H15z"
        fill="#F5B731"/>
  <!-- Rough edge bumps -->
  <circle cx="6" cy="12" r="3" fill="#F5B731"/>
  <circle cx="38" cy="5" r="2.5" fill="#F5B731"/>
  <circle cx="5" cy="100" r="2.5" fill="#F5B731"/>
  <circle cx="42" cy="175" r="2" fill="#F5B731"/>
  <circle cx="124" cy="172" r="3" fill="#F5B731"/>
  <circle cx="134" cy="188" r="2.5" fill="#F5B731"/>
  <ellipse cx="80" cy="198" rx="3" ry="2" fill="#F5B731"/>
  <ellipse cx="16" cy="188" rx="2.5" ry="3" fill="#F5B731"/>
  <circle cx="38" cy="90" r="2" fill="#F5B731"/>
</svg>