<svg width="140" height="200" viewBox="0 0 140 200" xmlns="http://www.w3.org/2000/svg">
  <path d="M15 0C8 0 3 5 3 12v176c0 7 5 12 12 12h110c7 0 12-5 12-12s-5-12-12-12H39v-64h70c7 0 12-5 12-12s-5-12-12-12H39V28h86c7 0 12-5 12-12S132 4 125 4H15z"
        fill="#F5B731"/>
  <!-- Rough edge bumps -->
  <circle cx="5" cy="12" r="3" fill="#F5B731"/>
  <circle cx="125" cy="2" r="2.5" fill="#F5B731"/>
  <circle cx="37" cy="5" r="2" fill="#F5B731"/>
  <circle cx="5" cy="100" r="2.5" fill="#F5B731"/>
  <circle cx="109" cy="98" r="2" fill="#F5B731"/>
  <circle cx="125" cy="198" r="3" fill="#F5B731"/>
  <ellipse cx="70" cy="198" rx="3" ry="2" fill="#F5B731"/>
  <ellipse cx="15" cy="188" rx="2.5" ry="3" fill="#F5B731"/>
  <circle cx="37" cy="112" r="2" fill="#F5B731"/>
  <circle cx="37" cy="88" r="2" fill="#F5B731"/>
</svg>