<svg width="180" height="200" viewBox="0 0 180 200" xmlns="http://www.w3.org/2000/svg">
  <path d="M90 0C67 0 46 9 31 25 15 41 5 63 5 87v26c0 24 10 46 26 62 15 16 36 25 59 25s44-9 59-25c16-16 26-38 26-62V87c0-24-10-46-26-62C134 9 113 0 90 0zm0 28c17 0 33 7 45 19 11 12 18 28 18 46v26c0 18-7 34-18 46-12 12-28 19-45 19s-33-7-45-19c-11-12-18-28-18-46V93c0-18 7-34 18-46 12-12 28-19 45-19z"
        fill="#F5B731"/>
  <!-- Rough edge bumps -->
  <circle cx="5" cy="100" r="3" fill="#F5B731"/>
  <circle cx="175" cy="100" r="3" fill="#F5B731"/>
  <circle cx="90" cy="3" r="2.5" fill="#F5B731"/>
  <circle cx="90" cy="197" r="2.5" fill="#F5B731"/>
  <ellipse cx="30" cy="35" rx="2.5" ry="3" fill="#F5B731"/>
  <ellipse cx="150" cy="35" rx="2.5" ry="3" fill="#F5B731"/>
  <ellipse cx="30" cy="165" rx="3" ry="2.5" fill="#F5B731"/>
  <ellipse cx="150" cy="165" rx="3" ry="2.5" fill="#F5B731"/>
  <circle cx="45" cy="93" r="2" fill="#F5B731"/>
  <circle cx="135" cy="93" r="2" fill="#F5B731"/>
</svg>