<svg width="160" height="200" viewBox="0 0 160 200" xmlns="http://www.w3.org/2000/svg">
  <path d="M148 0H12C5 0 0 5 0 12s5 12 12 12h56v164c0 7 5 12 12 12s12-5 12-12V24h56c7 0 12-5 12-12s-5-12-12-12z"
        fill="#F5B731"/>
  <!-- Rough edge bumps -->
  <circle cx="12" cy="2" r="3" fill="#F5B731"/>
  <circle cx="148" cy="2" r="3" fill="#F5B731"/>
  <circle cx="2" cy="12" r="2.5" fill="#F5B731"/>
  <circle cx="158" cy="12" r="2.5" fill="#F5B731"/>
  <circle cx="80" cy="198" r="3" fill="#F5B731"/>
  <ellipse cx="68" cy="24" rx="2" ry="2.5" fill="#F5B731"/>
  <ellipse cx="92" cy="24" rx="2" ry="2.5" fill="#F5B731"/>
  <circle cx="80" cy="100" r="2" fill="#F5B731"/>
  <circle cx="66" cy="188" r="2" fill="#F5B731"/>
  <circle cx="94" cy="188" r="2" fill="#F5B731"/>
</svg>