<svg width="200" height="240" viewBox="0 0 200 240" xmlns="http://www.w3.org/2000/svg">
  <!-- Organic hand-traced C with wobbly edges -->
  <path d="M172 58c-2-4-5-7-8-11-3-4-7-8-12-12-8-6-17-11-27-15-9-4-19-6-30-7-10-1-21 0-31 2-12 3-23 8-33 15-11 8-20 18-27 30-8 13-13 28-15 43-1 10-1 20 1 30 3 14 9 27 17 39 9 13 21 24 35 32 12 7 25 12 39 14 5 1 10 1 15 1 6 0 12-1 18-2 13-3 26-8 37-16 9-6 16-14 22-23 4-6 2-13-4-17-6-4-14-2-18 4-4 7-10 13-17 17-9 6-19 10-30 11-4 1-9 1-13 1-4 0-8-1-12-2-11-3-22-8-31-15-10-8-18-18-23-30-5-11-7-24-6-36 1-12 5-24 12-34 6-10 15-19 25-25 9-6 19-10 30-12 9-1 18-1 27 1 10 2 19 6 27 11 6 4 11 9 15 14 5 6 12 7 18 3 6-4 7-12 3-18-1-2-3-4-4-6z"
        fill="#F5B731"/>
</svg>